# ProBuilder 5.2.2
# https://unity3d.com/unity/features/worldbuilding/probuilder
# 2024-05-07 오전 9:11:20

mtllib ./Stairs_(2).mtl
o Stairs (2)

g Stairs (2)
v -0.3453236 -0.5727797 -8.318435
v -0.3453236 -0.5727797 -7.985103
v -0.3453236 -0.2394476 -8.318435
v -0.3453236 -0.2394476 -7.985103
v -0.3453236 -0.5727797 -7.65177
v -0.3453236 0.09388494 -7.65177
v -0.3453236 0.09388494 -7.985103
v -0.3453236 -0.5727797 -7.318438
v -0.3453236 0.427217 -7.318438
v -0.3453236 0.427217 -7.65177
v -0.3453236 -0.5727797 -6.985106
v -0.3453236 0.7605493 -6.985106
v -0.3453236 0.7605493 -7.318438
v -0.3453236 -0.5727797 -6.651773
v -0.3453236 1.093882 -6.651773
v -0.3453236 1.093882 -6.985106
v -0.3453236 -0.5727797 -6.318441
v -0.3453236 1.427214 -6.318441
v -0.3453236 1.427214 -6.651773
v -0.3453236 -0.5727797 -5.985109
v -0.3453236 1.760546 -5.985109
v -0.3453236 1.760546 -6.318441
v -0.3453236 -0.5727797 -5.651777
v -0.3453236 2.093878 -5.651777
v -0.3453236 2.093878 -5.985109
v -0.3453236 -0.5727797 -5.318444
v -0.3453236 2.427211 -5.318444
v -0.3453236 2.427211 -5.651777
v -0.3453236 -0.5727797 -4.985112
v -0.3453236 2.760543 -4.985112
v -0.3453236 2.760543 -5.318444
v -0.3453236 -0.5727797 -4.65178
v -0.3453236 3.093875 -4.65178
v -0.3453236 3.093875 -4.985112
v -0.3453236 -0.5727797 -4.318448
v -0.3453236 3.427207 -4.318448
v -0.3453236 3.427207 -4.65178
v -0.3453236 -0.5727797 -3.985116
v -0.3453236 3.76054 -3.985116
v -0.3453236 3.76054 -4.318448
v -0.3453236 -0.5727797 -3.651783
v -0.3453236 4.093872 -3.651783
v -0.3453236 4.093872 -3.985116
v -0.3453236 -0.5727797 -3.318451
v -0.3453236 4.427204 -3.318451
v -0.3453236 4.427204 -3.651783
v -0.3453236 -0.5727797 -2.985119
v -0.3453236 4.760536 -2.985119
v -0.3453236 4.760536 -3.318451
v -0.3453236 -0.5727797 -2.651786
v -0.3453236 5.093869 -2.651786
v -0.3453236 5.093869 -2.985119
v -0.3453236 -0.5727797 -2.318454
v -0.3453236 5.427201 -2.318454
v -0.3453236 5.427201 -2.651786
v -0.3453236 -0.5727797 -1.985122
v -0.3453236 5.760533 -1.985122
v -0.3453236 5.760533 -2.318454
v -0.3453236 -0.5727797 -1.65179
v -0.3453236 6.093865 -1.65179
v -0.3453236 6.093865 -1.985122
v -0.3453236 -0.5727797 -1.318458
v -0.3453236 6.427197 -1.318458
v -0.3453236 6.427197 -1.65179
v -0.3453236 -0.5727797 -0.9851255
v -0.3453236 6.76053 -0.9851255
v -0.3453236 6.76053 -1.318458
v -0.3453236 -0.5727797 -0.651793
v -0.3453236 7.093862 -0.651793
v -0.3453236 7.093862 -0.9851255
v -0.3453236 -0.5727797 -0.3184609
v -0.3453236 7.427194 -0.3184609
v -0.3453236 7.427194 -0.651793
v -0.3453236 -0.5727797 0.0148716
v -0.3453236 7.760527 0.0148716
v -0.3453236 7.760527 -0.3184609
v -0.3453236 -0.5727797 0.3482037
v -0.3453236 8.093859 0.3482037
v -0.3453236 8.093859 0.0148716
v -0.3453236 -0.5727797 0.6815357
v -0.3453236 8.427191 0.6815357
v -0.3453236 8.427191 0.3482037
v -0.3453236 -0.5727797 1.014868
v -0.3453236 8.760523 1.014868
v -0.3453236 8.760523 0.6815357
v -0.3453236 -0.5727797 1.348201
v -0.3453236 9.093856 1.348201
v -0.3453236 9.093856 1.014868
v -0.3453236 -0.5727797 1.681532
v -0.3453236 9.427187 1.681532
v -0.3453236 9.427187 1.348201
v -0.3453236 -0.5727797 2.014865
v -0.3453236 9.76052 2.014865
v -0.3453236 9.76052 1.681532

vt -8.318435 -0.5727797
vt -7.985103 -0.5727797
vt -8.318435 -0.2394476
vt -7.985103 -0.2394476
vt -7.65177 -0.5727797
vt -7.65177 0.09388494
vt -7.985103 0.09388494
vt -7.318438 -0.5727797
vt -7.318438 0.427217
vt -7.65177 0.427217
vt -6.985106 -0.5727797
vt -6.985106 0.7605493
vt -7.318438 0.7605493
vt -6.651773 -0.5727797
vt -6.651773 1.093882
vt -6.985106 1.093882
vt -6.318441 -0.5727797
vt -6.318441 1.427214
vt -6.651773 1.427214
vt -5.985109 -0.5727797
vt -5.985109 1.760546
vt -6.318441 1.760546
vt -5.651777 -0.5727797
vt -5.651777 2.093878
vt -5.985109 2.093878
vt -5.318444 -0.5727797
vt -5.318444 2.427211
vt -5.651777 2.427211
vt -4.985112 -0.5727797
vt -4.985112 2.760543
vt -5.318444 2.760543
vt -4.65178 -0.5727797
vt -4.65178 3.093875
vt -4.985112 3.093875
vt -4.318448 -0.5727797
vt -4.318448 3.427207
vt -4.65178 3.427207
vt -3.985116 -0.5727797
vt -3.985116 3.76054
vt -4.318448 3.76054
vt -3.651783 -0.5727797
vt -3.651783 4.093872
vt -3.985116 4.093872
vt -3.318451 -0.5727797
vt -3.318451 4.427204
vt -3.651783 4.427204
vt -2.985119 -0.5727797
vt -2.985119 4.760536
vt -3.318451 4.760536
vt -2.651786 -0.5727797
vt -2.651786 5.093869
vt -2.985119 5.093869
vt -2.318454 -0.5727797
vt -2.318454 5.427201
vt -2.651786 5.427201
vt -1.985122 -0.5727797
vt -1.985122 5.760533
vt -2.318454 5.760533
vt -1.65179 -0.5727797
vt -1.65179 6.093865
vt -1.985122 6.093865
vt -1.318458 -0.5727797
vt -1.318458 6.427197
vt -1.65179 6.427197
vt -0.9851255 -0.5727797
vt -0.9851255 6.76053
vt -1.318458 6.76053
vt -0.651793 -0.5727797
vt -0.651793 7.093862
vt -0.9851255 7.093862
vt -0.3184609 -0.5727797
vt -0.3184609 7.427194
vt -0.651793 7.427194
vt 0.0148716 -0.5727797
vt 0.0148716 7.760527
vt -0.3184609 7.760527
vt 0.3482037 -0.5727797
vt 0.3482037 8.093859
vt 0.0148716 8.093859
vt 0.6815357 -0.5727797
vt 0.6815357 8.427191
vt 0.3482037 8.427191
vt 1.014868 -0.5727797
vt 1.014868 8.760523
vt 0.6815357 8.760523
vt 1.348201 -0.5727797
vt 1.348201 9.093856
vt 1.014868 9.093856
vt 1.681532 -0.5727797
vt 1.681532 9.427187
vt 1.348201 9.427187
vt 2.014865 -0.5727797
vt 2.014865 9.76052
vt 1.681532 9.76052

vn -1 0 0

usemtl ProBuilderDefault
f 6/6/1 7/7/1 4/4/1
f 9/9/1 10/10/1 6/6/1
f 12/12/1 13/13/1 9/9/1
f 15/15/1 16/16/1 12/12/1
f 18/18/1 19/19/1 15/15/1
f 21/21/1 22/22/1 18/18/1
f 24/24/1 25/25/1 21/21/1
f 27/27/1 28/28/1 24/24/1
f 30/30/1 31/31/1 27/27/1
f 33/33/1 34/34/1 30/30/1
f 36/36/1 37/37/1 33/33/1
f 39/39/1 40/40/1 36/36/1
f 42/42/1 43/43/1 39/39/1
f 45/45/1 46/46/1 42/42/1
f 48/48/1 49/49/1 45/45/1
f 51/51/1 52/52/1 48/48/1
f 54/54/1 55/55/1 51/51/1
f 57/57/1 58/58/1 54/54/1
f 60/60/1 61/61/1 57/57/1
f 63/63/1 64/64/1 60/60/1
f 66/66/1 67/67/1 63/63/1
f 69/69/1 70/70/1 66/66/1
f 72/72/1 73/73/1 69/69/1
f 75/75/1 76/76/1 72/72/1
f 78/78/1 79/79/1 75/75/1
f 81/81/1 82/82/1 78/78/1
f 84/84/1 85/85/1 81/81/1
f 87/87/1 88/88/1 84/84/1
f 90/90/1 91/91/1 87/87/1
f 93/93/1 94/94/1 90/90/1
f 3/3/1 1/1/1 2/2/1
f 2/2/1 4/4/1 3/3/1
f 4/4/1 2/2/1 5/5/1
f 5/5/1 6/6/1 4/4/1
f 6/6/1 5/5/1 8/8/1
f 8/8/1 9/9/1 6/6/1
f 9/9/1 8/8/1 11/11/1
f 11/11/1 12/12/1 9/9/1
f 12/12/1 11/11/1 14/14/1
f 14/14/1 15/15/1 12/12/1
f 15/15/1 14/14/1 17/17/1
f 17/17/1 18/18/1 15/15/1
f 18/18/1 17/17/1 20/20/1
f 20/20/1 21/21/1 18/18/1
f 21/21/1 20/20/1 23/23/1
f 23/23/1 24/24/1 21/21/1
f 24/24/1 23/23/1 26/26/1
f 26/26/1 27/27/1 24/24/1
f 27/27/1 26/26/1 29/29/1
f 29/29/1 30/30/1 27/27/1
f 30/30/1 29/29/1 32/32/1
f 32/32/1 33/33/1 30/30/1
f 33/33/1 32/32/1 35/35/1
f 35/35/1 36/36/1 33/33/1
f 36/36/1 35/35/1 38/38/1
f 38/38/1 39/39/1 36/36/1
f 39/39/1 38/38/1 41/41/1
f 41/41/1 42/42/1 39/39/1
f 42/42/1 41/41/1 44/44/1
f 44/44/1 45/45/1 42/42/1
f 45/45/1 44/44/1 47/47/1
f 47/47/1 48/48/1 45/45/1
f 48/48/1 47/47/1 50/50/1
f 50/50/1 51/51/1 48/48/1
f 51/51/1 50/50/1 53/53/1
f 53/53/1 54/54/1 51/51/1
f 54/54/1 53/53/1 56/56/1
f 56/56/1 57/57/1 54/54/1
f 57/57/1 56/56/1 59/59/1
f 59/59/1 60/60/1 57/57/1
f 60/60/1 59/59/1 62/62/1
f 62/62/1 63/63/1 60/60/1
f 63/63/1 62/62/1 65/65/1
f 65/65/1 66/66/1 63/63/1
f 66/66/1 65/65/1 68/68/1
f 68/68/1 69/69/1 66/66/1
f 69/69/1 68/68/1 71/71/1
f 71/71/1 72/72/1 69/69/1
f 72/72/1 71/71/1 74/74/1
f 74/74/1 75/75/1 72/72/1
f 75/75/1 74/74/1 77/77/1
f 77/77/1 78/78/1 75/75/1
f 78/78/1 77/77/1 80/80/1
f 80/80/1 81/81/1 78/78/1
f 81/81/1 80/80/1 83/83/1
f 83/83/1 84/84/1 81/81/1
f 84/84/1 83/83/1 86/86/1
f 86/86/1 87/87/1 84/84/1
f 87/87/1 86/86/1 89/89/1
f 89/89/1 90/90/1 87/87/1
f 90/90/1 89/89/1 92/92/1
f 92/92/1 93/93/1 90/90/1

